<svg version="1.0" xmlns="http://www.w3.org/2000/svg" width="800" height="800" viewBox="0 0 64 64" xml:space="preserve"><g fill="#231F20"><circle cx="20" cy="12" r="1"/><path d="M63.6 29.2a1 1 0 0 0-1-.1L52 32.6V26a4 4 0 0 0-4-4h-4.4A12 12 0 1 0 26 7.2 12 12 0 1 0 8.4 22H4a4 4 0 0 0-4 4v34a4 4 0 0 0 4 4h44a4 4 0 0 0 4-4v-6.6l10.7 3.5a1 1 0 0 0 .9 0c.2-.3.4-.6.4-.9V30a1 1 0 0 0-.4-.8zM37 49c0 .6-.4 1-1 1H16a1 1 0 0 1-1-1V37c0-.6.4-1 1-1h20c.6 0 1 .4 1 1v12zM12 17a3 3 0 1 1 6 0 3 3 0 0 1-6 0zm22 0a3 3 0 1 1 6 0 3 3 0 0 1-6 0zm11-5a3 3 0 1 1-6 0 3 3 0 0 1 6 0zm-8-8a3 3 0 1 1 0 6 3 3 0 0 1 0-6zm-5 5a3 3 0 1 1 0 6 3 3 0 0 1 0-6zm-6 7.8c1 2.1 2.5 4 4.4 5.2h-8.8c2-1.3 3.5-3 4.4-5.2zM23 12a3 3 0 1 1-6 0 3 3 0 0 1 6 0zm-8-8a3 3 0 1 1 0 6 3 3 0 0 1 0-6zm-8 8a3 3 0 1 1 6 0 3 3 0 0 1-6 0zm51 41.3-6-2V34.7l6-2v20.6zm4 1.3-2-.7V32.1l2-.7v23.2z"/><circle cx="15" cy="17" r="1"/><circle cx="10" cy="12" r="1"/><circle cx="15" cy="7" r="1"/><circle cx="37" cy="17" r="1"/><circle cx="37" cy="7" r="1"/><circle cx="32" cy="12" r="1"/><circle cx="42" cy="12" r="1"/><path d="M17 38h18v10H17z"/></g></svg>